<svg xmlns="http://www.w3.org/2000/svg" viewBox="0 0 171.76158 180.82881"><g id="Layer_2" data-name="Layer 2"><g id="Art"><path d="M87.54917.81269A116.46574,116.46574,0,0,0,54.596,10.04341L49.80014,1.531A2.97661,2.97661,0,0,0,45.763.39131L24.88413,12.00068c-.0293.01612-.0586.03321-.08692.0503-.92871.5581-15.85693,10.00415-14.793,37.03C-.33853,68.08149-2.72281,89.29573,3.13608,110.71553c5.73535,20.97168,19.35351,41.21533,38.34473,57.00244,10.293,8.55615,24.05664,13.11084,38.95312,13.11084a76.22286,76.22286,0,0,0,12.18652-.99414c20.30372-3.28906,40.14747-14.42871,55.875-31.36573C162.81967,133.04316,171.515,108.30684,171.7562,82.3c.24707-26.63721-8.02735-50.147-22.70118-64.501C134.64292,3.70137,112.79526-2.32891,87.54917.81269ZM46.0687,7.02754,66.14292,42.6584l-17.5625,9.76513a2.97553,2.97553,0,0,0-1.5254,2.74708c.78125,15.772,15.64454,49.30712,31.78321,59.28906a2.978,2.978,0,0,0,3.00976.06982L99.471,104.73066l21.001,36.251L102.92709,150.737c-.08789.04883-8.86425,4.854-22.1455.79785-22.36719-6.83154-39.57813-33.20068-50.07715-54.11865C21.67905,79.43477,12.07749,53.74434,17.58627,33.46992c3.14356-11.57178,9.72168-15.9668,10.25-16.3042Zm98.06738,137.39355C129.305,160.39277,110.67221,170.884,91.66928,173.9626c-17.75,2.87646-34.65429-1.06836-46.38574-10.81885-29.334-24.38477-49.5-64.35425-34.0293-102.81909C13.20053,71.23823,17.5018,84.37214,25.388,100.08418c16.0293,31.937,34.082,51.16113,53.65625,57.13965A41.71936,41.71936,0,0,0,91.266,159.10615c8.78028,0,14.25781-3.00488,14.56543-3.17773l20.17676-11.21875a2.97369,2.97369,0,0,0,1.12793-4.09033l-23.9834-41.39942a2.97408,2.97408,0,0,0-4.01855-1.1084l-18.58594,10.334C67.60874,99.04707,54.80014,71.08906,53.14877,56.69014L71.6478,46.404a2.97537,2.97537,0,0,0,1.14648-4.05957L57.57456,15.33052a109.65111,109.65111,0,0,1,30.71-8.6145,97.57567,97.57567,0,0,1,12.04882-.76758c18.2334,0,33.77833,5.55468,44.56153,16.10254C173.08627,49.62764,172.68881,113.67207,144.13608,144.42109Z" style="fill:#fff"/></g></g></svg>