<svg xmlns="http://www.w3.org/2000/svg" viewBox="0 0 178.05518 195.50244"><g id="Layer_2" data-name="Layer 2"><g id="Art"><path d="M8.873,153.54492H22.15283A125.925,125.925,0,0,0,47.77441,182.3916c10.292,8.55615,24.05567,13.11084,38.95215,13.11084a76.28129,76.28129,0,0,0,12.1875-.99414c20.30371-3.28955,40.14746-14.42871,55.875-31.36572,14.32422-15.42578,23.01953-40.16211,23.26074-66.16944.24708-26.63671-8.02734-50.14648-22.70117-64.50146-8.271-8.09058-18.99951-13.50916-31.40625-16.07666V8.75977A8.76978,8.76978,0,0,0,115.18262,0h-9.72657a8.76978,8.76978,0,0,0-8.75976,8.75977v6.43359c-.62207.06079-1.24268.11963-1.86914.19189L79.47754,3.43262a13.55609,13.55609,0,0,0-16.67481,0L3.4209,49.67188A8.81862,8.81862,0,0,0,0,56.67236v88A8.88273,8.88273,0,0,0,8.873,153.54492ZM5.94922,56.67236a2.90823,2.90823,0,0,1,1.12695-2.30761L66.457,8.126a7.61584,7.61584,0,0,1,9.36621,0L135.2041,54.36475a2.90464,2.90464,0,0,1,1.12695,2.30761v88a2.92742,2.92742,0,0,1-2.92382,2.92432H94.5293a2.92743,2.92743,0,0,1-2.92383-2.92432V115.19482a8.88272,8.88272,0,0,0-8.873-8.87255H59.54785a8.88272,8.88272,0,0,0-8.873,8.87255v29.47754a2.92742,2.92742,0,0,1-2.92382,2.92432H8.873a2.92743,2.92743,0,0,1-2.92383-2.92432ZM102.64551,8.75977a2.81417,2.81417,0,0,1,2.81054-2.81153h9.72657a2.81417,2.81417,0,0,1,2.81054,2.81153v24.6643l-15.6123-12.15722a2.95494,2.95494,0,0,0,.26465-1.21509Zm48.543,27.96435c28.1914,27.57715,27.79394,91.62158-.75879,122.37061-14.83106,15.97168-33.46387,26.46289-52.4668,29.5415-17.75488,2.87744-34.65625-1.06836-46.38574-10.81885a121.12025,121.12025,0,0,1-22.24268-24.27246H47.751a8.88272,8.88272,0,0,0,8.873-8.87256V115.19482a2.92743,2.92743,0,0,1,2.92383-2.92431H82.73242a2.92742,2.92742,0,0,1,2.92383,2.92431v29.47754a8.88273,8.88273,0,0,0,8.87305,8.87256h38.87793a8.88272,8.88272,0,0,0,8.873-8.87256v-88a8.81485,8.81485,0,0,0-3.42187-7.001l-14.916-11.61475V22.4812C134.72217,24.91284,144.01367,29.70605,151.18848,36.72412Z" style="fill:#fff"/><path d="M56.835,55.87256H32.05762A2.97451,2.97451,0,0,0,29.083,58.84668V83.624a2.97451,2.97451,0,0,0,2.97461,2.97412H56.835A2.97451,2.97451,0,0,0,59.80957,83.624V58.84668A2.97451,2.97451,0,0,0,56.835,55.87256ZM53.86035,80.6499H35.03223V61.8208H53.86035Z" style="fill:#fff"/><path d="M82.4707,58.84668V83.624a2.97451,2.97451,0,0,0,2.97461,2.97412h24.77735a2.97452,2.97452,0,0,0,2.97461-2.97412V58.84668a2.97452,2.97452,0,0,0-2.97461-2.97412H85.44531A2.97451,2.97451,0,0,0,82.4707,58.84668Zm5.94922,2.97412h18.82813V80.6499H88.41992Z" style="fill:#fff"/></g></g></svg>