<svg xmlns="http://www.w3.org/2000/svg" viewBox="0 0 192.08839 203.04102"><g id="Layer_2" data-name="Layer 2"><g id="Art"><path d="M11.043,182.126H53.24414c2.71973,2.69885,5.56641,5.31274,8.56348,7.8042,10.292,8.55615,24.05566,13.11084,38.95215,13.11084a76.28264,76.28264,0,0,0,12.1875-.99414,90.49344,90.49344,0,0,0,30.2583-10.9209,42.96846,42.96846,0,0,0,40.28271-42.8291c0-.3108-.01709-.61768-.02344-.92688a113.75575,113.75575,0,0,0,8.61817-42.85828c.24707-26.63672-8.02735-50.14649-22.70117-64.50147a58.24088,58.24088,0,0,0-16.66993-11.30737V11.042A11.055,11.055,0,0,0,141.669,0H24.65137a11.055,11.055,0,0,0-11.043,11.042v2.46192H11.043A11.055,11.055,0,0,0,0,24.5459V171.084A11.055,11.055,0,0,0,11.043,182.126ZM5.94922,24.5459A5.09966,5.09966,0,0,1,11.043,19.45215H13.6084V157.58008a11.055,11.055,0,0,0,11.043,11.042h78.12842a43.08931,43.08931,0,0,0,5.20117,7.55566H11.043A5.09966,5.09966,0,0,1,5.94922,171.084ZM141.669,5.94824A5.09966,5.09966,0,0,1,146.7627,11.042v94.7898a42.8057,42.8057,0,0,0-38.11133,13.81079H41.707a2.97412,2.97412,0,1,0,0,5.94824h62.46729a42.80065,42.80065,0,0,0-4.03809,37.083H24.65137a5.09966,5.09966,0,0,1-5.09375-5.09375V11.042a5.09966,5.09966,0,0,1,5.09375-5.09375Zm35.87011,142.34864a36.96924,36.96924,0,1,1-36.96972-36.96973A37.01118,37.01118,0,0,1,177.53906,148.29688Zm-65.543,47.87792c-17.75195,2.87745-34.65625-1.06835-46.38574-10.81884q-1.88964-1.57086-3.72412-3.23h52.31934A42.74971,42.74971,0,0,0,131.666,190.28,81.59308,81.59308,0,0,1,111.99609,196.1748ZM165.22168,44.2627c20.501,20.05395,25.8667,59.38415,16.29785,91.17968a43.09811,43.09811,0,0,0-28.80762-28.30322V35.30859A51.68658,51.68658,0,0,1,165.22168,44.2627Z" style="fill:#fff"/><path d="M126.49805,76.4541H41.707a2.97412,2.97412,0,1,0,0,5.94824h84.791a2.97412,2.97412,0,1,0,0-5.94824Z" style="fill:#fff"/><path d="M126.49805,98.04834H41.707a2.97412,2.97412,0,1,0,0,5.94824h84.791a2.97412,2.97412,0,1,0,0-5.94824Z" style="fill:#fff"/><path d="M41.707,147.18506H84.10254a2.97412,2.97412,0,1,0,0-5.94824H41.707a2.97412,2.97412,0,1,0,0,5.94824Z" style="fill:#fff"/><path d="M38.73242,54.811a7.58792,7.58792,0,0,0,7.5791,7.5791h75.582a7.58792,7.58792,0,0,0,7.57911-7.5791V29.0166a7.58791,7.58791,0,0,0-7.57911-7.5791h-75.582a7.58791,7.58791,0,0,0-7.5791,7.5791Zm7.5791-27.4253h75.582a1.63262,1.63262,0,0,1,1.62989,1.63086V54.811a1.63261,1.63261,0,0,1-1.62989,1.63085h-75.582A1.63261,1.63261,0,0,1,44.68164,54.811V29.0166A1.63262,1.63262,0,0,1,46.31152,27.38574Z" style="fill:#fff"/><path d="M158.09277,167.57507v-3.94763a1.3559,1.3559,0,0,0-1.51367-1.51343H144.144c-1.25049,0-6.38281.06592-8.42236.19727v-.26306c3.22412-1.38172,3.94775-4.40821,4.01318-6.84265a13.22962,13.22962,0,0,0-.72314-4.93482h9.07959a1.26908,1.26908,0,0,0,1.44775-1.38159v-1.44751a1.29863,1.29863,0,0,0-1.44775-1.38184H137.564c-1.44775-3.75048-2.76318-7.50085-2.76318-10.33007,0-3.75025,2.82861-6.11914,7.36865-6.11914,3.68506,0,5.9878,1.44751,6.51416,3.8164.26319.921.72364,1.38159,1.57911,1.38159h5.0664c.9209,0,1.57861-.52636,1.44776-1.5133-.72413-5.2638-4.93506-10.98816-14.67286-10.98816-8.8164,0-15.65966,5.198-15.65966,13.15942,0,3.22412,1.25,6.71131,2.76318,10.59326H124.1416a1.27868,1.27868,0,0,0-1.38135,1.38184v1.44751a1.24818,1.24818,0,0,0,1.38135,1.38159h6.84278a14.52242,14.52242,0,0,1,.72363,4.21106c0,3.22376-.9209,6.90857-8.356,7.69812l-.85547.06592c-.65771.06543-1.05273.592-1.05273,1.57886v3.75036a1.35585,1.35585,0,0,0,1.51367,1.51343H156.5791A1.35585,1.35585,0,0,0,158.09277,167.57507Z" style="fill:#fff"/></g></g></svg>