<svg xmlns="http://www.w3.org/2000/svg" viewBox="0 0 185.64014 203.04102"><g id="Layer_2" data-name="Layer 2"><g id="Art"><path d="M152.60645,32.05786V11.042A11.05412,11.05412,0,0,0,141.56445,0H24.5459a11.05412,11.05412,0,0,0-11.042,11.042v2.46192H11.042A11.05412,11.05412,0,0,0,0,24.5459V171.084a11.05412,11.05412,0,0,0,11.042,11.042H46.79688c2.71972,2.69885,5.5664,5.31274,8.56347,7.8042C65.65234,198.48633,79.416,203.041,94.3125,203.041a76.30078,76.30078,0,0,0,12.1875-.99414c20.30371-3.28956,40.14648-14.42872,55.874-31.36573,14.32422-15.42578,23.01953-40.16211,23.26075-66.16943.24707-26.63672-8.02735-50.14649-22.70118-64.501A56.91658,56.91658,0,0,0,152.60645,32.05786ZM5.94922,171.084V24.5459A5.09882,5.09882,0,0,1,11.042,19.45215h2.46192V157.58008a11.05412,11.05412,0,0,0,11.042,11.042H133.1543V171.084a5.09966,5.09966,0,0,1-5.09375,5.09375H11.042A5.09882,5.09882,0,0,1,5.94922,171.084ZM19.45312,11.042A5.09883,5.09883,0,0,1,24.5459,5.94824H141.56445a5.09883,5.09883,0,0,1,5.09278,5.09375V157.58008a5.09883,5.09883,0,0,1-5.09278,5.09375H24.5459a5.09883,5.09883,0,0,1-5.09278-5.09375ZM158.01465,166.6333c-14.83008,15.97168-33.46289,26.46289-52.46582,29.5415-17.749,2.874-34.65528-1.06787-46.38574-10.81884q-1.88965-1.57086-3.72413-3.23h72.62159a11.055,11.055,0,0,0,11.043-11.042v-2.46191h2.46093a11.05412,11.05412,0,0,0,11.042-11.042V39.144a50.30783,50.30783,0,0,1,6.167,5.11866C186.96484,71.83984,186.56738,135.88428,158.01465,166.6333Z" style="fill:#fff"/><path d="M126.39355,76.4541h-84.792a2.97412,2.97412,0,1,0,0,5.94824h84.792a2.97412,2.97412,0,1,0,0-5.94824Z" style="fill:#fff"/><path d="M126.39355,98.04834h-84.792a2.97412,2.97412,0,1,0,0,5.94824h84.792a2.97412,2.97412,0,1,0,0-5.94824Z" style="fill:#fff"/><path d="M129.36816,122.6167a2.97451,2.97451,0,0,0-2.97461-2.97412h-84.792a2.97412,2.97412,0,1,0,0,5.94824h84.792A2.97451,2.97451,0,0,0,129.36816,122.6167Z" style="fill:#fff"/><path d="M83.99707,141.23682H41.60156a2.97412,2.97412,0,1,0,0,5.94824H83.99707a2.97412,2.97412,0,1,0,0-5.94824Z" style="fill:#fff"/><path d="M38.627,54.811a7.58812,7.58812,0,0,0,7.58008,7.5791h75.58106a7.58812,7.58812,0,0,0,7.58007-7.5791V29.0166a7.58811,7.58811,0,0,0-7.58007-7.5791H46.207A7.58812,7.58812,0,0,0,38.627,29.0166ZM46.207,27.38574h75.58106A1.63283,1.63283,0,0,1,123.419,29.0166V54.811a1.63282,1.63282,0,0,1-1.63086,1.63085H46.207A1.63282,1.63282,0,0,1,44.57617,54.811V29.0166A1.63283,1.63283,0,0,1,46.207,27.38574Z" style="fill:#fff"/></g></g></svg>