<svg xmlns="http://www.w3.org/2000/svg" viewBox="0 0 222.22608 180.83016"><g id="Layer_2" data-name="Layer 2"><g id="Art"><path d="M138.01562.81405a116.04121,116.04121,0,0,0-25.61621,6.24219q-5.22216-.40558-10.58984-.41065C45.67188,6.64559,0,40.8077,0,82.79891c0,15.563,6.17773,30.45557,17.88672,43.17139l-9.31738,35a7.15664,7.15664,0,0,0,6.87011,8.98047A7.15333,7.15333,0,0,0,18.792,169.106L54.44434,150.2452a125.4379,125.4379,0,0,0,26.39306,7.07544,131.06681,131.06681,0,0,0,11.10889,10.39868c10.292,8.55615,24.05566,13.11084,38.95215,13.11084a76.29971,76.29971,0,0,0,12.1875-.99414c20.30371-3.28955,40.14648-14.42871,55.874-31.36572,14.32422-15.42578,23.01953-40.16211,23.26074-66.16944.24707-26.6372-8.02734-50.147-22.70117-64.501C185.10938,3.70321,163.26855-2.33146,138.01562.81405ZM55.40527,144.2203a2.97546,2.97546,0,0,0-2.52246.12158L16.01074,163.84774a1.18048,1.18048,0,0,1-1.69336-1.34717l9.74317-36.59717a2.9756,2.9756,0,0,0-.72754-2.8247C11.96,111.22811,5.94922,97.2994,5.94922,82.79891c0-38.71094,43.00293-70.20508,95.86035-70.20508,52.8584,0,95.86133,31.49414,95.86133,70.20508,0,38.71143-43.00293,70.20557-95.86133,70.20557a124.36425,124.36425,0,0,1-45.97852-8.60889Zm139.19532.20215c-14.83008,15.97168-33.46289,26.46289-52.4668,29.5415-17.74414,2.87647-34.65527-1.06836-46.38477-10.81885q-2.70556-2.24927-5.29931-4.67468,5.64769.473,11.35986.4823c56.13867,0,101.81055-34.16211,101.81055-76.15381,0-35.56921-32.77246-65.51721-76.916-73.84668A105.37329,105.37329,0,0,1,138.751,6.71688a97.5467,97.5467,0,0,1,12.04687-.76758c18.2334,0,33.7793,5.55518,44.56153,16.10254C223.55078,49.629,223.15332,113.67293,194.60059,144.42245Z" style="fill:#fff"/><path d="M56.34277,58.379h93.99414a2.97412,2.97412,0,1,0,0-5.94824H56.34277a2.97412,2.97412,0,1,0,0,5.94824Z" style="fill:#fff"/><path d="M150.33691,70.85018H56.34277a2.97412,2.97412,0,1,0,0,5.94824h93.99414a2.97412,2.97412,0,1,0,0-5.94824Z" style="fill:#fff"/><path d="M150.33691,90.14364H56.34277a2.97412,2.97412,0,1,0,0,5.94824h93.99414a2.97412,2.97412,0,1,0,0-5.94824Z" style="fill:#fff"/><path d="M56.34277,115.38583h52.89161a2.97413,2.97413,0,1,0,0-5.94825H56.34277a2.97413,2.97413,0,1,0,0,5.94825Z" style="fill:#fff"/></g></g></svg>