<svg xmlns="http://www.w3.org/2000/svg" viewBox="0 0 183.12029 180.82885"><g id="Layer_2" data-name="Layer 2"><g id="Art"><path d="M160.41374,17.79809C146.00163,3.70092,124.15885-2.32887,98.90788.81274a114.6337,114.6337,0,0,0-14.125,2.67944A30.99277,30.99277,0,0,0,70.54264.01635c-15.793,0-29.05371,11.98779-32.53223,28.04163A79.28882,79.28882,0,0,0,23.58366,45.23119C11.38053,65.1936,8.238,87.83764,14.49479,110.71557c.0249.09106.05615.18164.081.27283a101.80988,101.80988,0,0,0-13.55957,20.671,9.6832,9.6832,0,0,0,8.69434,13.97314h22.166A128.00483,128.00483,0,0,0,52.83952,167.718c10.292,8.55615,24.05566,13.11084,38.95214,13.11084a76.28245,76.28245,0,0,0,12.1875-.99414,86.09218,86.09218,0,0,0,16.61036-4.4895,39.37234,39.37234,0,0,0,50.62793-43.21472c7.437-14.17615,11.729-31.68873,11.89746-49.83094C183.362,55.66235,175.08756,32.15258,160.41374,17.79809ZM70.54264,5.96459c15.1543,0,27.4834,13.65967,27.4834,30.44922S85.69694,66.863,70.54264,66.863,43.06022,53.20336,43.06022,36.41381,55.38834,5.96459,70.54264,5.96459Zm95.12695,131.74024a33.44629,33.44629,0,1,1-33.44628-33.44678A33.48453,33.48453,0,0,1,165.66959,137.70483Zm-159.15527.19824a3.62768,3.62768,0,0,1-.17187-3.59424c8.125-16.33154,27.2705-43.73047,64.20019-43.73047a64.21347,64.21347,0,0,1,40.606,13.86768,39.39162,39.39162,0,0,0-18.3208,33.25879q0,.99572.05029,1.97949H9.71061A3.68962,3.68962,0,0,1,6.51432,137.90307ZM103.028,173.96264c-17.75488,2.87744-34.65625-1.06836-46.38574-10.81885A122.43748,122.43748,0,0,1,39.4279,145.63256H93.62956A39.51083,39.51083,0,0,0,112.506,171.78869,78.29543,78.29543,0,0,1,103.028,173.96264Zm29.19532-75.65283a39.17991,39.17991,0,0,0-15.32081,3.10107A70.0227,70.0227,0,0,0,70.54264,84.63012c-22.95508,0-39.52783,9.64233-51.15283,21.18017a74.75477,74.75477,0,0,1,9.27-57.47656,68.1338,68.1338,0,0,1,8.47266-11.00622c.44824,19.64807,15.25683,35.48376,33.41015,35.48376,18.43457,0,33.43262-16.32764,33.43262-36.39746A37.62063,37.62063,0,0,0,91.48014,8.06713Q95.537,7.2307,99.64225,6.71557A97.60164,97.60164,0,0,1,111.69108,5.948c18.23437,0,33.7793,5.55469,44.5625,16.10254,22.73633,22.24121,26.86426,68.19336,12.63721,101.27808A39.45086,39.45086,0,0,0,132.22331,98.30981Z" style="fill:#fff"/><path d="M132.22331,159.63891a2.97451,2.97451,0,0,0,2.9746-2.97412v-16.646h16.64551a2.97412,2.97412,0,1,0,0-5.94824H135.19791V117.42406a2.97461,2.97461,0,0,0-5.94921,0v16.64649H112.60319a2.97412,2.97412,0,1,0,0,5.94824H129.2487v16.646A2.97451,2.97451,0,0,0,132.22331,159.63891Z" style="fill:#fff"/></g></g></svg>