<svg xmlns="http://www.w3.org/2000/svg" viewBox="0 0 185.64014 180.83016"><g id="Layer_2" data-name="Layer 2"><g id="Art"><path d="M101.42969.81405C69.75684,4.75643,40.18945,22.192,26.10352,45.23251a81.24474,81.24474,0,0,0-12.17481,39.8833H2.97461a2.97412,2.97412,0,1,0,0,5.94824H13.96533a87.07,87.07,0,0,0,3.04932,19.65283c5.73633,20.97119,19.35449,41.21533,38.3457,57.00244,10.292,8.55615,24.05567,13.11084,38.95215,13.11084A76.29962,76.29962,0,0,0,106.5,179.836c20.30371-3.28955,40.14648-14.42871,55.874-31.36572,14.32422-15.42578,23.01953-40.16211,23.26075-66.16944.24707-26.6372-8.02735-50.147-22.70118-64.501C148.52344,3.70321,126.68164-2.33146,101.42969.81405Zm56.585,143.6084q-2.8418,3.0606-5.86426,5.84594a2.952,2.952,0,0,0,.45606-1.56713V30.1285a2.97452,2.97452,0,0,0-2.97461-2.97412H84.32812a2.97412,2.97412,0,1,0,0,5.94824h62.32911V145.72713H84.16406a2.97413,2.97413,0,1,0,0,5.94825h65.46778a2.946,2.946,0,0,0,1.27343-.29651c-13.47021,12.05-29.27636,19.98-45.35644,22.58508-17.749,2.874-34.65528-1.06787-46.38574-10.81885-21.519-17.88879-38.09913-44.165-39.30176-72.08105h95.3999L87.98633,118.338a2.97448,2.97448,0,0,0,4.207,4.20606L124.54492,90.193a2.97413,2.97413,0,0,0,0-4.206L92.19336,53.63534a2.97447,2.97447,0,0,0-4.207,4.206l27.2749,27.27442H19.84082A75.054,75.054,0,0,1,31.17969,48.335C44.15332,27.11239,72.68066,10.38729,102.165,6.71688a97.54683,97.54683,0,0,1,12.04687-.76758c18.2334,0,33.7793,5.55518,44.56153,16.10254C186.96484,49.629,186.56738,113.67293,158.01465,144.42245Z" style="fill:#fff"/></g></g></svg>